<svg xmlns="http://www.w3.org/2000/svg" xmlns:xlink="http://www.w3.org/1999/xlink" width="1366" height="760" viewBox="0 0 1366 760"><defs><clipPath id="a"><rect width="1366" height="760" transform="translate(0 10)" fill="#2c3e50"/></clipPath></defs><g transform="translate(0 -10)" clip-path="url(#a)"><g transform="translate(0 10)"><path d="M503.3,394.517l150.829-41.265L472,201Z" transform="translate(199.617 85.006)" fill="#263646" stroke="#263646" stroke-linejoin="bevel" stroke-width="1"/><path d="M654.133,353.252,684.015,201H472Z" transform="translate(199.617 85.006)" fill="#28394a" stroke="#28394a" stroke-linejoin="bevel" stroke-width="1"/><path d="M684.015,232.719,629.944,126,472,232.719Z" transform="translate(199.617 53.288)" fill="#253544" stroke="#253544" stroke-linejoin="bevel" stroke-width="1"/><path d="M637.133,126,455,135.96l24.19,96.758Z" transform="translate(192.427 53.288)" fill="#1f2c39" stroke="#1f2c39" stroke-linejoin="bevel" stroke-width="1"/><path d="M528.248,201,339,374.6l220.552,19.921Z" transform="translate(143.369 85.006)" fill="#202e3b" stroke="#202e3b" stroke-linejoin="bevel" stroke-width="1"/><path d="M485.027,133,384,218.375l125.217,11.383Z" transform="translate(162.4 56.248)" fill="#233240" stroke="#233240" stroke-linejoin="bevel" stroke-width="1"/><path d="M600,353.252l147.983-89.644L629.881,201Z" transform="translate(253.75 85.006)" fill="#1e2b37" stroke="#1e2b37" stroke-linejoin="bevel" stroke-width="1"/><path d="M637.071,239.908,793.592,109,583,133.19Z" transform="translate(246.56 46.098)" fill="#273848" stroke="#273848" stroke-linejoin="bevel" stroke-width="1"/><path d="M644.11,528.552l88.221-190.671L600,308Z" transform="translate(253.75 130.258)" fill="#273848" stroke="#273848" stroke-linejoin="bevel" stroke-width="1"/><path d="M600,334.644l132.331,29.881L747.983,245Z" transform="translate(253.75 103.615)" fill="#28394a" stroke="#28394a" stroke-linejoin="bevel" stroke-width="1"/><path d="M339,323,514.019,502.288l45.533-159.367Z" transform="translate(143.369 136.602)" fill="#253544" stroke="#253544" stroke-linejoin="bevel" stroke-width="1"/><path d="M494,349.265,688.94,528.552,644.829,308Z" transform="translate(208.921 130.258)" fill="#253544" stroke="#253544" stroke-linejoin="bevel" stroke-width="1"/><path d="M403.031,193,339,377.979l189.248-173.6Z" transform="translate(143.369 81.623)" fill="#243342" stroke="#243342" stroke-linejoin="bevel" stroke-width="1"/><path d="M462,496.367l240.473,19.921L507.533,337Z" transform="translate(195.387 142.523)" fill="#1e2b37" stroke="#1e2b37" stroke-linejoin="bevel" stroke-width="1"/><path d="M504.058,142.727,339,110l64.031,118.1Z" transform="translate(143.369 46.521)" fill="#202e3b" stroke="#202e3b" stroke-linejoin="bevel" stroke-width="1"/><path d="M438.556,193,255,363.75l119.525,14.229Z" transform="translate(107.844 81.623)" fill="#212f3c" stroke="#212f3c" stroke-linejoin="bevel" stroke-width="1"/><path d="M343.269,0,339,156.521l165.058,32.727Z" transform="translate(143.369)" fill="#202e3b" stroke="#202e3b" stroke-linejoin="bevel" stroke-width="1"/><path d="M916.015,224.256,742.419,109,704,302.517Z" transform="translate(297.733 46.098)" fill="#233240" stroke="#233240" stroke-linejoin="bevel" stroke-width="1"/><path d="M739.1,302.517,777.521,109,621,239.908Z" transform="translate(262.631 46.098)" fill="#202e3b" stroke="#202e3b" stroke-linejoin="bevel" stroke-width="1"/><path d="M637.133,179.287,489.15,0,455,189.248Z" transform="translate(192.427)" fill="#1f2c39" stroke="#1f2c39" stroke-linejoin="bevel" stroke-width="1"/><path d="M631,519.671l125.217-46.956L719.221,329Z" transform="translate(266.86 139.14)" fill="#273848" stroke="#273848" stroke-linejoin="bevel" stroke-width="1"/><path d="M941.627,420.513,916.015,190,704,268.26Z" transform="translate(297.733 80.354)" fill="#202e3b" stroke="#202e3b" stroke-linejoin="bevel" stroke-width="1"/><path d="M339,323l25.612,179.288H514.019Z" transform="translate(143.369 136.602)" fill="#212f3c" stroke="#212f3c" stroke-linejoin="bevel" stroke-width="1"/><path d="M462,449l61.185,129.485L702.473,468.921Z" transform="translate(195.387 189.89)" fill="#243342" stroke="#243342" stroke-linejoin="bevel" stroke-width="1"/><path d="M795.706,155.1,578,0l7.115,179.287Z" transform="translate(244.446)" fill="#1e2b37" stroke="#1e2b37" stroke-linejoin="bevel" stroke-width="1"/><path d="M619.869,0H479L626.983,179.287Z" transform="translate(202.577)" fill="#28394a" stroke="#28394a" stroke-linejoin="bevel" stroke-width="1"/><path d="M349,578.485H570.975L509.79,449Z" transform="translate(147.598 189.89)" fill="#202e3b" stroke="#202e3b" stroke-linejoin="bevel" stroke-width="1"/><path d="M631,476.956,797.481,586.521,756.217,430Z" transform="translate(266.86 181.854)" fill="#263646" stroke="#263646" stroke-linejoin="bevel" stroke-width="1"/><path d="M208,187l66.877,179.288,183.556-170.75Z" transform="translate(87.967 79.085)" fill="#28394a" stroke="#28394a" stroke-linejoin="bevel" stroke-width="1"/><path d="M384.675,323,231,468.137l179.287,34.15Z" transform="translate(97.694 136.602)" fill="#273848" stroke="#273848" stroke-linejoin="bevel" stroke-width="1"/><path d="M505,572.565H671.481L684.287,463Z" transform="translate(213.573 195.81)" fill="#1e2b37" stroke="#1e2b37" stroke-linejoin="bevel" stroke-width="1"/><path d="M536.94,0H342L502.79,189.248Z" transform="translate(144.637)" fill="#1e2b37" stroke="#1e2b37" stroke-linejoin="bevel" stroke-width="1"/><path d="M387.212,110,225,151.265,451.244,228.1Z" transform="translate(95.156 46.521)" fill="#243342" stroke="#243342" stroke-linejoin="bevel" stroke-width="1"/><path d="M230.692,0,225,197.785l162.212-41.265Z" transform="translate(95.156)" fill="#1e2b37" stroke="#1e2b37" stroke-linejoin="bevel" stroke-width="1"/><path d="M946.279,397.252,708.652,245,693,364.525Z" transform="translate(293.081 103.615)" fill="#212f3c" stroke="#212f3c" stroke-linejoin="bevel" stroke-width="1"/><path d="M795.706,155.1,811.358,0H578Z" transform="translate(244.446)" fill="#233240" stroke="#233240" stroke-linejoin="bevel" stroke-width="1"/><path d="M232.19,139,208,207.3l250.433,8.538Z" transform="translate(87.967 58.785)" fill="#233240" stroke="#233240" stroke-linejoin="bevel" stroke-width="1"/><path d="M360.383,449,349,578.485,509.79,449Z" transform="translate(147.598 189.89)" fill="#202e3b" stroke="#202e3b" stroke-linejoin="bevel" stroke-width="1"/><path d="M259,578.485H387.063L398.446,449Z" transform="translate(109.535 189.89)" fill="#1e2b37" stroke="#1e2b37" stroke-linejoin="bevel" stroke-width="1"/><path d="M850.525,0H746.652L731,155.1Z" transform="translate(309.152)" fill="#1f2c39" stroke="#1f2c39" stroke-linejoin="bevel" stroke-width="1"/><path d="M109,314.423,282.6,472.367,316.746,313Z" transform="translate(46.098 132.373)" fill="#233240" stroke="#233240" stroke-linejoin="bevel" stroke-width="1"/><path d="M265.15,313,231,472.367,384.675,327.229Z" transform="translate(97.694 132.373)" fill="#28394a" stroke="#28394a" stroke-linejoin="bevel" stroke-width="1"/><path d="M904.6,224.256l-17.075-102.45L731,109Z" transform="translate(309.152 46.098)" fill="#233240" stroke="#233240" stroke-linejoin="bevel" stroke-width="1"/><path d="M760.265,586.521,855.6,464.15,719,430Z" transform="translate(304.077 181.854)" fill="#212f3c" stroke="#212f3c" stroke-linejoin="bevel" stroke-width="1"/><path d="M730,472.715,946.279,361.727,693,329Z" transform="translate(293.081 139.14)" fill="#28394a" stroke="#28394a" stroke-linejoin="bevel" stroke-width="1"/><path d="M855.6,497.137,935.283,352,719,462.988Z" transform="translate(304.077 148.867)" fill="#212f3c" stroke="#212f3c" stroke-linejoin="bevel" stroke-width="1"/><path d="M622,572.565H801.287L634.806,463Z" transform="translate(263.054 195.81)" fill="#22313e" stroke="#22313e" stroke-linejoin="bevel" stroke-width="1"/><path d="M887.521,167.9,850.525,0,731,155.1Z" transform="translate(309.152)" fill="#1f2c39" stroke="#1f2c39" stroke-linejoin="bevel" stroke-width="1"/><path d="M231,425l39.842,163.635L410.287,459.15Z" transform="translate(97.694 179.74)" fill="#22313e" stroke="#22313e" stroke-linejoin="bevel" stroke-width="1"/><path d="M259.679,146.613,143,121l92.49,93.913Z" transform="translate(60.477 51.173)" fill="#253544" stroke="#253544" stroke-linejoin="bevel" stroke-width="1"/><path d="M389.79,0H229L385.521,156.521Z" transform="translate(96.848)" fill="#273848" stroke="#273848" stroke-linejoin="bevel" stroke-width="1"/><path d="M265.371,0,143,172.173l116.679,25.613Z" transform="translate(60.477)" fill="#1f2c39" stroke="#1f2c39" stroke-linejoin="bevel" stroke-width="1"/><path d="M247.331,187,115,251.031,314.208,366.288Z" transform="translate(48.635 79.085)" fill="#263646" stroke="#263646" stroke-linejoin="bevel" stroke-width="1"/><path d="M264.833,425,151,466.265,304.675,588.635Z" transform="translate(63.86 179.74)" fill="#233240" stroke="#233240" stroke-linejoin="bevel" stroke-width="1"/><path d="M154.842,121,115,278.944l132.331-64.031Z" transform="translate(48.635 51.173)" fill="#253544" stroke="#253544" stroke-linejoin="bevel" stroke-width="1"/><path d="M748,576.371H883.177L843.335,454Z" transform="translate(316.342 192.004)" fill="#22313e" stroke="#22313e" stroke-linejoin="bevel" stroke-width="1"/><path d="M997.64,445.181V347L871,354.115Z" transform="translate(368.36 146.752)" fill="#243342" stroke="#243342" stroke-linejoin="bevel" stroke-width="1"/><path d="M117.538,232,109,348.679l207.746-1.423Z" transform="translate(46.098 98.117)" fill="#1e2b37" stroke="#1e2b37" stroke-linejoin="bevel" stroke-width="1"/><path d="M109,314l59.762,199.208L282.6,471.944Z" transform="translate(46.098 132.796)" fill="#243342" stroke="#243342" stroke-linejoin="bevel" stroke-width="1"/><path d="M858.075,230.177,1010.327,95,841,127.727Z" transform="translate(355.673 40.177)" fill="#273848" stroke="#273848" stroke-linejoin="bevel" stroke-width="1"/><path d="M852,167.9,1021.323,0H815Z" transform="translate(344.677)" fill="#233240" stroke="#233240" stroke-linejoin="bevel" stroke-width="1"/><path d="M878.612,420.513l126.64-187.825L853,190Z" transform="translate(360.748 80.354)" fill="#1f2c39" stroke="#1f2c39" stroke-linejoin="bevel" stroke-width="1"/><path d="M997.64,400.71V220L871,407.825Z" transform="translate(368.36 93.042)" fill="#212f3c" stroke="#212f3c" stroke-linejoin="bevel" stroke-width="1"/><path d="M1021.323,443.067,894.683,352,815,497.137Z" transform="translate(344.677 148.867)" fill="#212f3c" stroke="#212f3c" stroke-linejoin="bevel" stroke-width="1"/><path d="M854.842,592.442,1021.323,416,815,470.071Z" transform="translate(344.677 175.933)" fill="#202e3b" stroke="#202e3b" stroke-linejoin="bevel" stroke-width="1"/><path d="M1005.252,272.865V95L853,230.177Z" transform="translate(360.748 40.177)" fill="#263646" stroke="#263646" stroke-linejoin="bevel" stroke-width="1"/><path d="M0,417,183.556,592.019l31.3-122.371Z" transform="translate(0 176.356)" fill="#1f2c39" stroke="#1f2c39" stroke-linejoin="bevel" stroke-width="1"/><path d="M160.3,454,129,576.371H313.979Z" transform="translate(54.556 192.004)" fill="#1f2c39" stroke="#1f2c39" stroke-linejoin="bevel" stroke-width="1"/><path d="M0,110V283.6H163.635Z" transform="translate(0 46.521)" fill="#273848" stroke="#273848" stroke-linejoin="bevel" stroke-width="1"/><path d="M163.635,232H0L155.1,348.679Z" transform="translate(0 98.117)" fill="#263646" stroke="#263646" stroke-linejoin="bevel" stroke-width="1"/><path d="M276.367,0H117l37,172.173Z" transform="translate(49.481)" fill="#1e2b37" stroke="#1e2b37" stroke-linejoin="bevel" stroke-width="1"/><path d="M1010.327,135.177V0L841,167.9Z" transform="translate(355.673)" fill="#243342" stroke="#243342" stroke-linejoin="bevel" stroke-width="1"/><path d="M843,592.442h166.481V416Z" transform="translate(356.519 175.933)" fill="#202e3b" stroke="#202e3b" stroke-linejoin="bevel" stroke-width="1"/><path d="M0,110,163.635,283.6l39.842-157.944Z" transform="translate(0 46.521)" fill="#28394a" stroke="#28394a" stroke-linejoin="bevel" stroke-width="1"/><path d="M155.1,314,0,460.56l214.86,52.648Z" transform="translate(0 132.796)" fill="#243342" stroke="#243342" stroke-linejoin="bevel" stroke-width="1"/><path d="M0,232V381.406l155.1-32.727Z" transform="translate(0 98.117)" fill="#253544" stroke="#253544" stroke-linejoin="bevel" stroke-width="1"/><path d="M166.481,0,0,156.521l203.477,15.652Z" fill="#273848" stroke="#273848" stroke-linejoin="bevel" stroke-width="1"/><path d="M0,346.727V460.56L155.1,314Z" transform="translate(0 132.796)" fill="#243342" stroke="#243342" stroke-linejoin="bevel" stroke-width="1"/><path d="M166.481,0H0V156.521Z" fill="#233240" stroke="#233240" stroke-linejoin="bevel" stroke-width="1"/><path d="M0,417V592.019H183.556Z" transform="translate(0 176.356)" fill="#243342" stroke="#243342" stroke-linejoin="bevel" stroke-width="1"/></g></g></svg>