<svg xmlns="http://www.w3.org/2000/svg" width="62" height="62" viewBox="0 0 62 62"><path d="M37-374H-5a10.011,10.011,0,0,1-10-10v-42A10.011,10.011,0,0,1-5-436H37a10.011,10.011,0,0,1,10,10v42a10.011,10.011,0,0,1-10,10ZM24.035-405.077c4.1,0,4.1,3.883,4.1,6.718v12.351H36v-13.937c0-6.269-1.144-12.07-9.439-12.07a8.319,8.319,0,0,0-7.454,4.1H19v-3.461H11.441v25.37h7.87v-12.562C19.31-401.789,19.872-405.077,24.035-405.077Zm-25.407-6.3h0v25.37H6.506v-25.37Zm3.935-12.63A4.568,4.568,0,0,0-2-419.446a4.589,4.589,0,0,0,4.562,4.605,4.59,4.59,0,0,0,4.563-4.6,4.568,4.568,0,0,0-4.563-4.563Z" transform="translate(15 436)" fill="#2c3e50"/></svg>