<svg xmlns="http://www.w3.org/2000/svg" width="65" height="65" viewBox="0 0 65 65"><path d="M271.228,1668.094l2.07,2.069a1.744,1.744,0,0,0,2.467-2.467l-2.062-2.07,2.062-2.062s-7.807-3.335-8.127-3.456a1.524,1.524,0,0,0-.533-.1,1.486,1.486,0,0,0-1.494,1.479,1.463,1.463,0,0,0,.1.533c.121.306,3.456,8.142,3.456,8.142l2.062-2.069Zm-19.128,6.848a2.843,2.843,0,0,0,2.844,2.844h28.444a2.843,2.843,0,0,0,2.844-2.844V1648.63a2.843,2.843,0,0,0-2.844-2.844H254.944a2.843,2.843,0,0,0-2.844,2.844v26.311Zm5.12-19.2h23.893a1.56,1.56,0,0,1,1.564,1.564v15.36a1.56,1.56,0,0,1-1.564,1.564H257.22a1.56,1.56,0,0,1-1.564-1.564v-15.36a1.56,1.56,0,0,1,1.564-1.564Zm-1.564-4.623a1.778,1.778,0,1,1,1.778,1.778A1.778,1.778,0,0,1,255.656,1651.119Zm6.4,0a1.778,1.778,0,1,1,1.777,1.778A1.778,1.778,0,0,1,262.056,1651.119Zm6.4,0a1.778,1.778,0,1,1,1.777,1.778A1.778,1.778,0,0,1,268.456,1651.119Z" transform="translate(-237.1 -1628.786)" fill="#f1f1f1"/><rect width="65" height="65" fill="none"/></svg>