<svg xmlns="http://www.w3.org/2000/svg" width="65" height="65" viewBox="0 0 65 65"><path d="M278.282,1737.758v-4.364a2.909,2.909,0,0,0-2.909-2.909H263.736a2.909,2.909,0,0,0-2.909,2.909v4.364h-5.818a2.909,2.909,0,0,0-2.909,2.909v18.909a2.909,2.909,0,0,0,2.909,2.909H284.1a2.908,2.908,0,0,0,2.909-2.909v-18.909a2.909,2.909,0,0,0-2.909-2.909Zm-12.218-3.636h6.982a1.6,1.6,0,0,1,1.6,1.6v2.036H264.464v-2.036a1.6,1.6,0,0,1,1.6-1.6Zm-5.236,8.727v14.545a1.455,1.455,0,1,1-2.909,0v-14.545a1.455,1.455,0,1,1,2.909,0Zm20.364,0v14.545a1.455,1.455,0,1,1-2.909,0v-14.545a1.455,1.455,0,1,1,2.909,0Z" transform="translate(-237.1 -1713.485)" fill="#f1f1f1"/><rect width="65" height="65" fill="none"/></svg>