<svg xmlns="http://www.w3.org/2000/svg" width="62" height="61.999" viewBox="0 0 62 61.999"><path d="M282.769,5133.176H241.355a10.324,10.324,0,0,0-10.293,10.293v41.414a10.323,10.323,0,0,0,10.293,10.292h41.414a10.323,10.323,0,0,0,10.293-10.292v-41.414A10.324,10.324,0,0,0,282.769,5133.176Zm-31.86,27.125h22.306a11.807,11.807,0,1,1-22.306,0Zm34.4,0v23.247a3.886,3.886,0,0,1-3.875,3.875H242.687a3.887,3.887,0,0,1-3.875-3.875V5160.3h6.061a17.619,17.619,0,1,0,34.378,0Zm0-13.565a1.943,1.943,0,0,1-1.938,1.937H279.5a1.943,1.943,0,0,1-1.938-1.937v-3.875a1.944,1.944,0,0,1,1.938-1.937h3.875a1.944,1.944,0,0,1,1.938,1.937Z" transform="translate(-231.062 -5133.176)" fill="#2c3e50"/></svg>