<svg xmlns="http://www.w3.org/2000/svg" width="65" height="65" viewBox="0 0 65 65"><rect width="65" height="65" fill="none"/><path d="M259.434,1901.356a4.09,4.09,0,0,0-2-.666,5.355,5.355,0,0,0-5.333,5.38c0,4.3,4.58,5.833,7.334,7.954v1a8.332,8.332,0,0,0,6.667,8.167v4.834a1.337,1.337,0,0,1-1.333,1.333H261.1a1.667,1.667,0,1,0,0,3.333h13.333a1.667,1.667,0,1,0,0-3.333h-3.667a1.337,1.337,0,0,1-1.333-1.333v-4.834a8.332,8.332,0,0,0,6.667-8.166v-1c2.754-2.12,7.334-3.653,7.334-7.954a5.355,5.355,0,0,0-5.333-5.38,4.09,4.09,0,0,0-2,.666Zm6,4.667v8a1.333,1.333,0,1,1-2.666,0v-8a1.333,1.333,0,1,1,2.666,0Zm-10,.046a2,2,0,1,1,4,0v4.1C257.513,1908.957,255.433,1908.149,255.433,1906.07Zm24.667,0c0,2.079-2.08,2.887-4,4.1v-4.1a2,2,0,1,1,4,0Z" transform="translate(-235.1 -1883.69)" fill="#f1f1f1"/></svg>