<svg xmlns="http://www.w3.org/2000/svg" width="65" height="65" viewBox="0 0 65 65"><rect width="65" height="65" fill="none"/><path d="M256.1,1842.936h28v4h-32v-32h4Zm5-2a3,3,0,1,1,0-6c.088,0,.175,0,.262.012l3.224-5.375a3,3,0,1,1,5.026,0l3.224,5.375c.087-.008.174-.012.263-.012.066,0,.133,0,.2.007l5.323-9.316a3,3,0,1,1,2.478,1.309c-.067,0-.133,0-.2-.008l-5.323,9.317a3,3,0,1,1-4.991.053l-3.224-5.375c-.087.008-.174.012-.262.012s-.176,0-.263-.012l-3.224,5.375a3,3,0,0,1-2.513,4.638Z" transform="translate(-235.1 -1797.936)" fill="#f1f1f1"/></svg>