<svg xmlns="http://www.w3.org/2000/svg" width="62" height="62" viewBox="0 0 62 62"><path d="M422.385,5174.858c-.215.242-.484.2-.807-.122q-.525-.443-.161-.767.322-.363.807.121C422.547,5174.388,422.6,5174.643,422.385,5174.858Zm-1.695-2.462q.363.483,0,.766c-.216.162-.444.067-.686-.282s-.242-.592,0-.727Q420.368,5171.871,420.69,5172.4Zm-2.463-2.422a.344.344,0,0,1-.524.081c-.269-.135-.364-.3-.283-.484q.122-.2.525-.081C418.215,5169.624,418.309,5169.786,418.228,5169.974Zm1.252,1.372q-.242.283-.646-.121-.363-.445-.081-.646.242-.243.646.121Q419.762,5171.144,419.479,5171.346Zm5.207,4.521q-.162.484-.766.242-.687-.16-.525-.605t.767-.283Q424.807,5175.423,424.686,5175.868Zm2.543.2q0,.443-.646.444-.687.08-.686-.444c0-.3.216-.444.646-.444Q427.23,5175.544,427.229,5176.07Zm2.341-.4c.053.271-.134.458-.566.566s-.672,0-.726-.324.134-.524.565-.6Q429.49,5175.222,429.57,5175.665Zm38.912-38.588v38.75a11.645,11.645,0,0,1-11.625,11.625h-9.042a9.085,9.085,0,0,1-.988-.041,3.54,3.54,0,0,1-.788-.2,1.113,1.113,0,0,1-.646-.584,2.607,2.607,0,0,1-.2-1.111v-9.646q0-3.915-2.1-5.732a27.75,27.75,0,0,0,4.137-.727,16.505,16.505,0,0,0,3.794-1.574,11.263,11.263,0,0,0,3.27-2.685,12.484,12.484,0,0,0,2.14-4.237,20.35,20.35,0,0,0,.827-6.076,11.77,11.77,0,0,0-3.189-8.314,10.747,10.747,0,0,0-.323-8.234,5.275,5.275,0,0,0-3.269.444,21.691,21.691,0,0,0-3.714,1.775l-1.534.969a29.121,29.121,0,0,0-15.5,0q-.645-.445-1.715-1.091a24.394,24.394,0,0,0-3.371-1.554,5.649,5.649,0,0,0-3.471-.544,10.852,10.852,0,0,0-.283,8.234,11.77,11.77,0,0,0-3.189,8.314,20.152,20.152,0,0,0,.827,6.056,12.984,12.984,0,0,0,2.119,4.237,10.859,10.859,0,0,0,3.25,2.705,16.506,16.506,0,0,0,3.794,1.574,27.751,27.751,0,0,0,4.137.727,6.537,6.537,0,0,0-1.978,4.157,7.981,7.981,0,0,1-1.816.606,11.414,11.414,0,0,1-2.3.2,4.757,4.757,0,0,1-2.644-.868,7.116,7.116,0,0,1-2.24-2.523,6.509,6.509,0,0,0-1.957-2.1,5.9,5.9,0,0,0-2-.969l-.807-.121a2.6,2.6,0,0,0-1.171.182q-.323.181-.2.464a2.209,2.209,0,0,0,.363.564,2.9,2.9,0,0,0,.525.484l.283.2a4.88,4.88,0,0,1,1.756,1.535,10.081,10.081,0,0,1,1.271,2.058l.4.929a5.113,5.113,0,0,0,1.776,2.482,6.273,6.273,0,0,0,2.7,1.21,17.172,17.172,0,0,0,2.806.283,11.787,11.787,0,0,0,2.24-.142l.928-.161q0,1.533.02,4.157t.02,2.745a1.885,1.885,0,0,1-.444,1.353,1.565,1.565,0,0,1-.888.524,10.711,10.711,0,0,1-1.332.061h-9.042a11.645,11.645,0,0,1-11.625-11.625v-38.75a11.645,11.645,0,0,1,11.625-11.625h38.75a11.645,11.645,0,0,1,11.625,11.625Z" transform="translate(-406.482 -5125.452)" fill="#2c3e50"/></svg>