<svg xmlns="http://www.w3.org/2000/svg" width="42" height="31.5" viewBox="0 0 42 31.5"><path d="M1053.428,5142.255h-36.75a2.625,2.625,0,0,0-2.625,2.625v26.25a2.625,2.625,0,0,0,2.625,2.625h36.75a2.625,2.625,0,0,0,2.625-2.625v-26.25A2.625,2.625,0,0,0,1053.428,5142.255Zm-3.627,5.25-14.748,10.057L1020.3,5147.5Zm1,19.687a1.313,1.313,0,0,1-1.313,1.313h-28.875a1.312,1.312,0,0,1-1.312-1.313v-14.077l14.43,9.774a2.565,2.565,0,0,0,2.64,0l14.43-9.774Z" transform="translate(-1014.053 -5142.255)" fill="#2c3e50"/></svg>