<svg xmlns="http://www.w3.org/2000/svg" width="62" height="62" viewBox="0 0 62 62"><path d="M282.73,5041.652H241.4a10.365,10.365,0,0,0-10.334,10.334v41.332a10.362,10.362,0,0,0,10.334,10.334H282.73a10.361,10.361,0,0,0,10.332-10.335v-41.331A10.363,10.363,0,0,0,282.73,5041.652Zm-5.26,23.1c.016.341.023.685.023,1.029,0,10.505-8,22.619-22.619,22.619a22.5,22.5,0,0,1-12.186-3.572,16.121,16.121,0,0,0,1.9.111,15.954,15.954,0,0,0,9.874-3.4,7.959,7.959,0,0,1-7.426-5.521,7.969,7.969,0,0,0,3.59-.136,7.956,7.956,0,0,1-6.377-7.8c0-.033,0-.066,0-.1a7.928,7.928,0,0,0,3.6.994,7.957,7.957,0,0,1-2.46-10.613,22.569,22.569,0,0,0,16.387,8.306,7.955,7.955,0,0,1,13.547-7.251,15.926,15.926,0,0,0,5.048-1.928,7.98,7.98,0,0,1-3.5,4.4,15.867,15.867,0,0,0,4.566-1.252,16.124,16.124,0,0,1-3.967,4.115Z" transform="translate(-231.062 -5041.652)" fill="#2c3e50"/></svg>